<?xml version="1.0" encoding="UTF-8"?>
<svg id="Calque_2" data-name="Calque 2" xmlns="http://www.w3.org/2000/svg" xmlns:xlink="http://www.w3.org/1999/xlink" viewBox="0 0 40.12 52.68">
  <defs>
    <style>
      .cls-1 {
        fill: url(#radial-gradient-2);
      }

      .cls-2 {
        fill: url(#linear-gradient-8);
      }

      .cls-3 {
        fill: url(#linear-gradient-7);
      }

      .cls-4 {
        fill: url(#linear-gradient-5);
      }

      .cls-5 {
        fill: url(#linear-gradient-6);
      }

      .cls-6 {
        fill: url(#linear-gradient-9);
      }

      .cls-7 {
        fill: url(#linear-gradient-4);
      }

      .cls-8 {
        fill: url(#linear-gradient-3);
      }

      .cls-9 {
        fill: url(#linear-gradient-2);
      }

      .cls-10 {
        fill: url(#radial-gradient);
      }

      .cls-11 {
        fill: url(#linear-gradient);
      }

      .cls-12 {
        fill: #fff;
      }

      .cls-13 {
        fill: #f27721;
      }
    </style>
    <radialGradient id="radial-gradient" cx="20.06" cy="9.22" fx="20.06" fy="9.22" r="1.81" gradientUnits="userSpaceOnUse">
      <stop offset="0" stop-color="#f27721"/>
      <stop offset=".29" stop-color="#ed7321"/>
      <stop offset=".59" stop-color="#e16a23"/>
      <stop offset=".9" stop-color="#cc5b25"/>
      <stop offset="1" stop-color="#c45527"/>
    </radialGradient>
    <linearGradient id="linear-gradient" x1="0" y1="29.78" x2="40.12" y2="29.78" gradientUnits="userSpaceOnUse">
      <stop offset="0" stop-color="#0993ca"/>
      <stop offset=".08" stop-color="#18a2d9"/>
      <stop offset=".22" stop-color="#2db6ee"/>
      <stop offset=".36" stop-color="#39c2fa"/>
      <stop offset=".5" stop-color="#3ec7ff"/>
      <stop offset=".64" stop-color="#39c2fa"/>
      <stop offset=".78" stop-color="#2db6ee"/>
      <stop offset=".92" stop-color="#18a2d9"/>
      <stop offset="1" stop-color="#0993ca"/>
    </linearGradient>
    <linearGradient id="linear-gradient-2" x1="7.16" y1="48.65" x2="7.16" y2="47.3" gradientUnits="userSpaceOnUse">
      <stop offset="0" stop-color="#3ec7ff"/>
      <stop offset=".18" stop-color="#32bbf3"/>
      <stop offset=".7" stop-color="#149ed5"/>
      <stop offset="1" stop-color="#0993ca"/>
    </linearGradient>
    <linearGradient id="linear-gradient-3" x1="20.06" x2="20.06" xlink:href="#linear-gradient-2"/>
    <linearGradient id="linear-gradient-4" x1="0" y1="14.54" x2="40.12" y2="14.54" gradientUnits="userSpaceOnUse">
      <stop offset="0" stop-color="#007cb4"/>
      <stop offset=".09" stop-color="#0b8cc4"/>
      <stop offset=".23" stop-color="#19a0d9"/>
      <stop offset=".37" stop-color="#22ace5"/>
      <stop offset=".5" stop-color="#25b1ea"/>
      <stop offset=".63" stop-color="#22ace5"/>
      <stop offset=".77" stop-color="#19a0d9"/>
      <stop offset=".91" stop-color="#0b8cc4"/>
      <stop offset="1" stop-color="#007cb4"/>
    </linearGradient>
    <linearGradient id="linear-gradient-5" x1="4.78" y1="6.13" x2="35.34" y2="6.13" xlink:href="#linear-gradient"/>
    <linearGradient id="linear-gradient-6" y1="45.02" y2="45.02" xlink:href="#linear-gradient-4"/>
    <linearGradient id="linear-gradient-7" x1="126.22" y1="568.19" x2="126.22" y2="569.53" gradientTransform="translate(-93.27 -520.89)" xlink:href="#linear-gradient-2"/>
    <linearGradient id="linear-gradient-8" x1=".47" y1="50.67" x2="39.65" y2="50.67" xlink:href="#linear-gradient-4"/>
    <linearGradient id="linear-gradient-9" x1="20.06" y1="8.21" x2="20.06" y2="3.01" gradientUnits="userSpaceOnUse">
      <stop offset="0" stop-color="#f27721"/>
      <stop offset=".58" stop-color="#f3a328"/>
      <stop offset="1" stop-color="#f4bf2d"/>
    </linearGradient>
    <radialGradient id="radial-gradient-2" cy="5.61" fy="5.61" r="1.74" xlink:href="#radial-gradient"/>
  </defs>
  <g id="Layer_1" data-name="Layer 1">
    <g>
      <rect class="cls-10" x="18.32" y="7.35" width="3.48" height="3.75"/>
      <rect class="cls-11" y="16.82" width="40.12" height="25.92"/>
      <rect class="cls-9" x="4.78" y="47.3" width="4.77" height="1.34"/>
      <rect class="cls-8" x="16.75" y="47.3" width="6.61" height="1.34"/>
      <path class="cls-7" d="M35.34,12.26H4.78S0,14.21,0,16.82h40.12c0-2.61-4.78-4.56-4.78-4.56Z"/>
      <path class="cls-4" d="M34.41,0c.51,0,.93.42.93.93v11.33H4.78V.93c0-.51.42-.93.93-.93h28.7ZM20.06,2.28h-9.85c-.51,0-.93.42-.93.93v1.94c0,1.8,1.46,3.26,3.26,3.26h15.04c1.8,0,3.26-1.46,3.26-3.26v-1.94c0-.51-.42-.93-.93-.93h-9.85Z"/>
      <path class="cls-5" d="M20.06,42.74H0c0,2.61,4.78,4.56,4.78,4.56h30.56s4.78-1.95,4.78-4.56h-20.06Z"/>
      <rect class="cls-3" x="30.57" y="47.3" width="4.77" height="1.34" transform="translate(65.91 95.95) rotate(180)"/>
      <path class="cls-2" d="M20.06,48.65H1.17c-.39,0-.7.31-.7.7v3.33h39.18v-3.33c0-.39-.31-.7-.7-.7h-18.89Z"/>
      <circle class="cls-6" cx="20.06" cy="5.61" r="2.6"/>
      <circle class="cls-1" cx="20.06" cy="5.61" r="1.74"/>
      <g>
        <rect class="cls-12" x="12.87" y="22.59" width="14.38" height="14.38" transform="translate(26.93 -5.46) rotate(45)"/>
        <path class="cls-13" d="M24.93,28.07c0,.81-.5,1.9-1.27,2.29.57-.66,1.11-3.23-.65-5.42.02.87-.2,2.03-.89,3.31.38-2.04-1.48-4.09-.84-5.55-2.68,1.3-1.86,3.96-2.58,5.26-.31-1.18-1.1-2.52-1.53-2.68.27,1.99-1.34,2.62-.66,4.98,0,0-.85-1.38-.75-2.87-2.39,3.14-.47,7.22,1.83,8.14-.32-.78-.31-1.9.34-2.76-.05.74.37,1.42.37,1.42-.33-1.17.47-1.48.33-2.47.22.08.61.75.76,1.33.36-.64-.05-1.97,1.28-2.61-.32.73.61,1.74.42,2.76.34-.64.45-1.21.44-1.65.87,1.09.61,2.37.32,2.69.38-.2.63-.73.63-1.14.37.78.33,1.7.05,2.43,2.3-.51,3.81-4.49,2.4-7.46Z"/>
      </g>
    </g>
  </g>
</svg>